<?xml version="1.0" standalone="no"?>
<svg version="1.0" xmlns="http://www.w3.org/2000/svg"
     width="144.000000pt" height="144.000000pt" viewBox="0 0 144.000000 144.000000"
     preserveAspectRatio="xMidYMid meet">

    <g transform="translate(0.000000,144.000000) scale(0.100000,-0.100000)"
       fill="#000000" stroke="none">
        <path d="M280 1130 c-13 -78 -20 -157 -17 -180 10 -79 74 -147 160 -171 l37
-10 0 -299 c0 -260 2 -300 15 -300 13 0 15 40 15 299 l0 299 49 17 c62 20 125
86 141 146 10 37 8 67 -10 184 -13 77 -27 144 -31 149 -21 24 -21 -15 1 -154
23 -147 23 -150 5 -190 -75 -166 -305 -151 -353 23 -8 30 -6 67 14 180 13 78
24 143 24 145 0 1 -6 2 -14 2 -9 0 -20 -40 -36 -140z"/>
        <path d="M460 1144 c0 -96 3 -125 13 -122 8 3 13 40 15 126 2 104 0 122 -13
122 -13 0 -15 -20 -15 -126z"/>
        <path d="M1088 1243 c-77 -59 -131 -149 -182 -303 -34 -103 -68 -253 -82 -357
l-7 -53 157 0 156 0 0 -180 c0 -153 2 -180 15 -180 13 0 15 68 15 550 0 525
-1 550 -18 550 -10 0 -35 -12 -54 -27z m42 -353 l0 -340 -141 0 -141 0 7 48
c36 255 119 484 210 581 26 28 52 51 56 51 5 0 9 -153 9 -340z"/>
    </g>
</svg>
