<svg width="39" height="40" viewBox="0 0 39 40" fill="none" xmlns="http://www.w3.org/2000/svg">
    <g clip-path="url(#clip0_37_168)">
        <path d="M19.6475 0.986328C30.3356 0.986328 39 9.65075 39 20.3389C39 31.027 30.3356 39.6914 19.6475 39.6914C8.95935 39.6914 0.294922 31.027 0.294922 20.3389C0.294922 9.65075 8.95935 0.986328 19.6475 0.986328ZM19.6465 2.88965C10.0103 2.88976 2.19829 10.7017 2.19824 20.3379C2.19824 29.9741 10.0103 37.786 19.6465 37.7861C29.2828 37.7861 37.0947 29.9742 37.0947 20.3379C37.0947 10.7017 29.2827 2.88965 19.6465 2.88965Z" fill="black"/>
        <path fill-rule="evenodd" clip-rule="evenodd" d="M24.4354 12.6124L23.2705 12.6258V13.6365V14.6472H19.929H16.5874V14.8601C16.5874 15.1598 16.871 21.6268 16.8847 21.6405C16.8909 21.6467 17.9544 21.6306 19.2479 21.6047C20.5414 21.5788 22.8811 21.5535 24.4472 21.5485C27.2803 21.5394 27.2964 21.5399 27.6711 21.6463C29.1559 22.068 30.1424 23.1394 30.4504 24.6652C30.6075 25.4432 30.4811 26.4427 30.14 27.118L29.9994 27.3965H31.6238C32.5172 27.3965 33.2482 27.3859 33.2482 27.3728C33.2482 27.3598 32.729 26.3115 32.0946 25.0433C31.4601 23.7751 30.8445 22.5226 30.7263 22.2599L30.5116 21.7822L30.5842 21.3785C30.8206 20.0646 30.8109 18.3785 30.5597 17.1171C30.378 16.2042 29.9968 15.2586 29.6179 14.7803L29.4751 14.6001H27.8554H26.2356V13.5886V12.5771L25.9179 12.5881C25.7432 12.594 25.0761 12.605 24.4354 12.6124ZM7.10681 12.6725C6.97889 12.6948 6.79007 12.7724 6.68714 12.845C6.31915 13.1046 6.04768 13.8127 6.04584 14.5178L6.04504 14.8353H6.84514H7.64523V18.8107V22.7861H6.91573H6.18624V23.7505V24.7149H7.73333H9.28043L9.31135 24.5217C9.35912 24.2231 9.60493 23.6267 9.81258 23.3055C10.322 22.5178 11.017 22.0247 11.9462 21.7921C12.278 21.709 12.5337 21.693 13.8951 21.6703L15.4621 21.6441L15.4475 17.8986C15.4328 14.154 15.4328 14.1531 15.3266 13.8382C15.1989 13.4596 14.8605 13.0615 14.5307 12.9019C14.0255 12.6575 14.0186 12.657 10.5632 12.644C8.79006 12.6373 7.23469 12.6501 7.10681 12.6725ZM13.7987 14.8093C13.8193 14.8272 13.909 17.3873 13.8897 17.4065C13.8618 17.4345 9.43819 17.8197 9.41672 17.7961C9.40651 17.7849 9.36331 17.2358 9.32067 16.576C9.27803 15.9162 9.23007 15.231 9.21411 15.0534L9.18512 14.7304L11.4861 14.7648C12.7516 14.7837 13.7923 14.8038 13.7987 14.8093ZM31.3664 16.9406C31.3682 17.3984 31.5482 20.632 31.5733 20.6571C31.5877 20.6715 31.8586 20.6216 32.1753 20.5462L32.7512 20.4093L32.7365 18.6455C32.7283 17.6755 32.7121 16.872 32.7003 16.86C32.6771 16.8363 31.7072 16.7232 31.495 16.7195C31.3716 16.7173 31.3656 16.7275 31.3664 16.9406ZM12.5018 22.5991C11.4378 22.8777 10.7347 23.7114 10.5607 24.9008C10.348 26.355 11.2254 27.7079 12.5895 28.0293C12.9738 28.1199 13.6895 28.121 14.1166 28.0317C14.5894 27.9328 15.1581 27.638 15.4723 27.3288C15.7109 27.0942 16.0124 26.665 15.9692 26.6217C15.9594 26.6119 15.0938 26.6203 14.0456 26.6404C12.9975 26.6605 12.1264 26.6697 12.1101 26.661C12.0726 26.6409 11.9608 25.8898 11.9908 25.8597C12.022 25.8285 26.6033 25.3961 26.6327 25.4255C26.646 25.4388 26.6307 25.6598 26.5987 25.9166L26.5405 26.3836L26.3527 26.4169C26.2495 26.4352 25.6938 26.4514 25.1178 26.4529C24.3733 26.4548 24.0706 26.471 24.0706 26.5087C24.0706 26.6347 24.3926 27.1121 24.6456 27.3613C25.1478 27.856 25.8063 28.1006 26.6356 28.1006C28.1106 28.1006 29.2327 27.2646 29.5064 25.9616C29.8371 24.387 28.8758 22.8966 27.3181 22.5688C26.6317 22.4245 25.8042 22.5246 25.2215 22.8225C24.7629 23.0569 24.2202 23.6543 24.0673 24.0928C24.0206 24.2266 24.0071 24.2318 23.6331 24.2609C23.4207 24.2775 23.137 24.2911 23.0025 24.2912L22.758 24.2915L22.5792 23.9504C22.2235 23.2715 21.5184 22.7536 20.7031 22.5723C20.1965 22.4597 19.3573 22.4948 18.9642 22.6451C18.1909 22.9407 17.5494 23.6026 17.3385 24.3221C17.2708 24.5533 17.2101 24.5738 16.5931 24.5738H16.1869L16.0787 24.2949C15.7379 23.4162 14.9775 22.7675 14.0608 22.5734C13.6091 22.4777 12.922 22.489 12.5018 22.5991ZM19.166 26.5484C18.2674 26.5644 17.5172 26.5926 17.4988 26.6109C17.4805 26.6293 17.5666 26.7924 17.6903 26.9734C18.0251 27.4632 18.4485 27.7725 19.0818 27.9899C19.2903 28.0614 19.4735 28.0784 20.0231 28.0769C20.6447 28.0753 20.7391 28.0635 21.0821 27.9446C21.7566 27.7107 22.2865 27.2836 22.587 26.7315L22.7117 26.5027L21.7556 26.511C21.2299 26.5157 20.0645 26.5325 19.166 26.5484Z" fill="black"/>
    </g>
    <defs>
        <clipPath id="clip0_37_168">
            <rect width="38.7051" height="38.7051" fill="white" transform="translate(0.292969 0.986328)"/>
        </clipPath>
    </defs>
</svg>
